<svg id="Capa_1" enable-background="new 0 0 512 512" height="512" viewBox="0 0 512 512" width="512" xmlns="http://www.w3.org/2000/svg"><g><path d="m136 512h300c8.284 0 15-6.716 15-15v-421c0-8.284-6.716-15-15-15h-45v-46c0-8.284-6.716-15-15-15h-300c-8.284 0-15 6.716-15 15v422c0 8.284 6.716 15 15 15h45v45c0 8.284 6.716 15 15 15zm255-75v-346h30v391h-270v-30h225c8.284 0 15-6.716 15-15zm-300-15v-392h270v392z"/><path d="m136 121h90c8.284 0 15-6.716 15-15s-6.716-15-15-15h-90c-8.284 0-15 6.716-15 15s6.716 15 15 15z"/><path d="m316 151h-180c-8.284 0-15 6.716-15 15s6.716 15 15 15h180c8.284 0 15-6.716 15-15s-6.716-15-15-15z"/><path d="m316 211h-180c-8.284 0-15 6.716-15 15s6.716 15 15 15h180c8.284 0 15-6.716 15-15s-6.716-15-15-15z"/><path d="m316 271h-180c-8.284 0-15 6.716-15 15s6.716 15 15 15h180c8.284 0 15-6.716 15-15s-6.716-15-15-15z"/><path d="m316 331h-60c-8.284 0-15 6.716-15 15s6.716 15 15 15h60c8.284 0 15-6.716 15-15s-6.716-15-15-15z"/></g></svg>