<?xml version="1.0"?>
<svg xmlns="http://www.w3.org/2000/svg" viewBox="0 0 64 64" width="512" height="512"><g id="Layer_14" data-name="Layer 14"><path d="M63.591,12.193a1,1,0,0,0-.892-.147l-38,12A1,1,0,0,0,24,25V63a1,1,0,0,0,1,1H63a1,1,0,0,0,1-1V13A1,1,0,0,0,63.591,12.193ZM43,62H39V54h4Zm2,0V54h4v8Zm17,0H51V53a1,1,0,0,0-1-1H38a1,1,0,0,0-1,1v9H26V25.733L62,14.364Z"/><path d="M21,28H5a1,1,0,0,0-1,1v4a1,1,0,0,0,1,1H21a1,1,0,0,0,1-1V29A1,1,0,0,0,21,28Zm-1,4H6V30H20Z"/><path d="M21,20H5a1,1,0,0,0-1,1v4a1,1,0,0,0,1,1H21a1,1,0,0,0,1-1V21A1,1,0,0,0,21,20Zm-1,4H6V22H20Z"/><path d="M21,12H5a1,1,0,0,0-1,1v4a1,1,0,0,0,1,1H21a1,1,0,0,0,1-1V13A1,1,0,0,0,21,12Zm-1,4H6V14H20Z"/><path d="M21,36H5a1,1,0,0,0-1,1v4a1,1,0,0,0,1,1H21a1,1,0,0,0,1-1V37A1,1,0,0,0,21,36Zm-1,4H6V38H20Z"/><path d="M21,54a1,1,0,0,0,0-2H14a1,1,0,0,0-1,1v9H2V2.364L38,13.733V17a1,1,0,0,0,2,0V13a1,1,0,0,0-.7-.954l-38-12A1,1,0,0,0,0,1V63a1,1,0,0,0,1,1H21a1,1,0,0,0,0-2H15V54Z"/><path d="M21,44H5a1,1,0,0,0-1,1v4a1,1,0,0,0,1,1H21a1,1,0,0,0,1-1V45A1,1,0,0,0,21,44Zm-1,4H6V46H20Z"/><path d="M29,34H59a1,1,0,0,0,1-1V29a1,1,0,0,0-1-1H29a1,1,0,0,0-1,1v4A1,1,0,0,0,29,34Zm1-4H58v2H30Z"/><path d="M47,26H59a1,1,0,0,0,1-1V21a1,1,0,0,0-1-1H47a1,1,0,0,0-1,1v4A1,1,0,0,0,47,26Zm1-4H58v2H48Z"/><path d="M29,42H59a1,1,0,0,0,1-1V37a1,1,0,0,0-1-1H29a1,1,0,0,0-1,1v4A1,1,0,0,0,29,42Zm1-4H58v2H30Z"/><path d="M29,50H59a1,1,0,0,0,1-1V45a1,1,0,0,0-1-1H29a1,1,0,0,0-1,1v4A1,1,0,0,0,29,50Zm1-4H58v2H30Z"/></g></svg>
